<?xml version="1.0" encoding="UTF-8" standalone="no"?>
<!-- Created with Inkscape (http://www.inkscape.org/) -->

<svg
   width="1000.0001"
   height="1000.0001"
   viewBox="0 0 264.58335 264.58335"
   version="1.1"
   id="svg1"
   xmlns="http://www.w3.org/2000/svg"
   xmlns:svg="http://www.w3.org/2000/svg">
  <defs
     id="defs1" />
  <g
     id="layer1">
    <g
       id="g17">
      <path
         d="m 298.62126,305.79641 -11.17764,27.60214 h 59.05716 l -8.94267,11.85386 h -47.87952 l -11.17764,29.33014 h 72.31983 l -8.94267,19.728 h -79.91554 l 25.14968,-101.088 h 63.70853 l -8.94267,12.57386 z"
         id="text2"
         style="font-weight:bold;font-size:144px;line-height:0px;font-family:Poppins;-inkscape-font-specification:'Poppins Bold';text-align:center;letter-spacing:0px;word-spacing:2.56px;direction:rtl;text-anchor:middle;white-space:pre;opacity:0.5;fill:#35414e;stroke-width:5;stroke-linecap:round;stroke-linejoin:round"
         aria-label="E"
         transform="matrix(-0.59173261,0,0,0.59173261,289.21515,-95.927544)" />
      <path
         d="m 164.54244,77.54828 -11.18823,53.83879 c -0.86242,3.35763 -3.88906,5.70512 -7.35569,5.70512 h -10.90841 c -0.17337,0 -0.32479,-0.1173 -0.36813,-0.28517 l -4.64249,-17.98374 -9.96269,-41.275 23.75458,51.50648 20.6644,-51.50648 z"
         id="text3"
         style="font-weight:bold;font-size:144px;line-height:0px;font-family:Poppins;-inkscape-font-specification:'Poppins Bold';text-align:center;letter-spacing:0px;word-spacing:2.56px;direction:rtl;text-anchor:middle;white-space:pre;opacity:0.5;fill:#35414e;stroke-width:2.94515;stroke-linecap:round;stroke-linejoin:round"
         aria-label="V" />
      <path
         style="opacity:0.5;fill:#000000;fill-opacity:1;stroke-width:6.25873;stroke-linecap:round;stroke-linejoin:round"
         d="m 318.99519,497.52975 -9.58788,-21.24077 h 79.92466 c 43.95857,0 80.18827,-0.42649 80.51043,-0.94778 0.32216,-0.52128 -3.60104,-11.9278 -8.71823,-25.34784 -5.1172,-13.42002 -10.748,-28.20222 -12.5129,-32.84933 l -3.20891,-8.44928 H 391.7325 338.06264 l -9.47957,-12.51745 -9.47957,-12.51745 h 65.76236 c 36.16929,0 65.76235,-0.19866 65.76235,-0.44147 0,-0.24282 -5.57586,-14.18413 -12.3908,-30.98069 l -12.39078,-30.53922 -48.63178,-0.38182 -48.63178,-0.38183 -9.67047,-13.70031 -9.67048,-13.7003 h 70.69305 c 38.88117,0 70.71477,0.14082 70.74133,0.31294 0.0266,0.17211 12.60982,50.86778 27.9628,112.65705 l 27.91451,112.34412 -88.98537,-0.0389 -88.98537,-0.0389 z"
         id="path8"
         transform="scale(0.26458333)" />
      <path
         style="opacity:1;fill:#999999;stroke-width:6.25873;stroke-linecap:round;stroke-linejoin:round"
         d="m 499.604,477.85367 c -12.47421,-48.36413 -42.93851,-174.5013 -42.29942,-175.14039 0.2534,-0.2534 17.26653,36.02186 37.80695,80.6117 20.54041,44.58983 39.84984,86.42364 42.90983,92.964 l 5.56362,11.89158 2.27446,-5.00698 c 1.25096,-2.75384 17.93498,-44.07395 37.0756,-91.82248 19.14063,-47.74852 34.94879,-86.05192 35.12925,-85.11866 0.18047,0.93326 -8.69206,45.0698 -19.71675,98.08121 -22.47884,108.08802 -20.96598,103.1539 -33.66191,109.78633 -6.65061,3.47433 -6.84646,3.49659 -30.76213,3.49659 h -24.0689 z"
         id="path9"
         transform="scale(0.26458333)" />
      <path
         style="opacity:1;fill:#999999;stroke-width:6.25873;stroke-linecap:round;stroke-linejoin:round"
         d="m 509.46023,516.95579 c 0,-0.43119 -3.68381,-14.96799 -8.18623,-32.30402 -10.45019,-40.23716 -44.5683,-181.33962 -43.98771,-181.92021 0.24165,-0.24164 19.46792,40.82224 42.72504,91.25308 23.25713,50.43084 42.69999,92.14415 43.20637,92.69624 0.50638,0.5521 17.47678,-40.1555 37.712,-90.46133 20.23521,-50.30583 36.97169,-90.92399 37.19216,-90.26257 0.35281,1.05842 -26.40839,131.72512 -36.12746,176.39935 -4.36533,20.06545 -7.18651,25.68133 -15.4765,30.80785 l -6.15546,3.80652 -25.4511,0.38452 c -13.99811,0.21148 -25.45111,0.0317 -25.45111,-0.39943 z"
         id="path10"
         transform="scale(0.26458333)" />
      <path
         style="opacity:1;fill:#ac9393;stroke:none;stroke-width:6.25873;stroke-linecap:round;stroke-linejoin:round;stroke-opacity:1"
         d="m 508.33826,512.90253 c -16.33641,-62.93506 -51.90623,-209.3167 -51.06665,-210.15629 0.27149,-0.27148 19.24682,40.07558 42.1674,89.66014 22.92059,49.58455 42.34211,91.06771 43.15893,92.18477 1.66991,2.28375 1.04799,3.74256 47.97097,-112.52252 14.93739,-37.01163 27.33642,-66.76122 27.55344,-66.1102 0.38728,1.16185 -12.52929,64.88833 -29.95708,147.79914 -11.01175,52.38722 -12.12325,55.17696 -24.25413,60.87483 -5.88516,2.76425 -7.69409,2.94045 -30.30657,2.95194 l -24.04785,0.0122 z"
         id="path16"
         transform="scale(0.26458333)" />
      <path
         style="opacity:1;fill:#252323;fill-opacity:1;stroke:none;stroke-width:0;stroke-linecap:round;stroke-linejoin:round;stroke-dasharray:none;stroke-opacity:1"
         d="m 508.24952,512.90253 c -7.37368,-26.05612 -51.55937,-208.32308 -50.70854,-209.17391 0.61806,-0.61806 -29.35347,-64.32283 17.42358,36.6532 19.53437,42.16816 67.89959,144.66938 68.36716,144.66938 1.23001,0 4.50755,-7.79673 36.93693,-87.86696 35.62986,-87.97242 37.23878,-91.81881 37.75694,-90.26433 0.39326,1.17978 -27.01996,135.41664 -34.7509,170.16799 -6.21543,27.93897 -8.7916,32.82338 -19.98943,37.9 -5.03451,2.28243 -8.18618,2.55661 -29.6701,2.58118 l -24.03726,0.0275 z"
         id="path17"
         transform="scale(0.26458333)" />
    </g>
  </g>
</svg>
