<?xml version="1.0" encoding="UTF-8" standalone="no"?>
<!-- Created with Inkscape (http://www.inkscape.org/) -->

<svg
   width=" 100.0001"
   height="100.0001"
   viewBox="0 0 264.58335 264.58335"
   version="1.1"
   id="svg1"
   xmlns="http://www.w3.org/2000/svg"
   xmlns:svg="http://www.w3.org/2000/svg">
  <defs
     id="defs1" />
  <g
     id="layer1">
    <path
       style="opacity:1;fill:#1a1a1a;fill-opacity:1;stroke:none;stroke-width:0;stroke-linecap:round;stroke-linejoin:round;stroke-dasharray:none;stroke-opacity:1"
       d="m 328.79257,517.90951 c -1.1105,-1.84807 -18.3598,-28.34641 -18.3598,-28.97684 0,-0.35403 35.67473,-0.64369 79.27718,-0.64369 43.60246,0 79.6156,-0.3384 80.02923,-0.75203 0.80671,-0.80671 -4.3905,-27.73938 -16.29337,-58.81428 l -0.12575,-0.32831 a 30.06813,30.06813 34.853266 0 0 -27.72967,-19.31088 l -33.47893,-0.38873 -53.90263,-0.62587 -8.88105,-11.47636 c -4.88458,-6.312 -8.88105,-11.80403 -8.88105,-12.20452 0,-0.40048 29.29083,-0.72815 65.09074,-0.72815 35.79991,0 65.06735,-0.42246 65.03877,-0.93881 -0.0286,-0.51634 -5.52062,-14.45765 -12.20452,-30.98069 l -1.42514,-3.52304 a 43.023628,43.023628 34.355763 0 0 -39.33144,-26.88622 l -20.12624,-0.25849 -48.73027,-0.62587 -9.16293,-12.87328 c -5.03961,-7.0803 -9.16293,-13.17011 -9.16293,-13.53291 0,-0.90953 138.55841,-0.0594 139.47227,0.8557 0.70463,0.70563 55.79995,220.81749 55.79995,222.92697 0,1.28414 -176.14102,1.37006 -176.91242,0.0863 z"
       id="path27"
       transform="matrix(0.26458333,0,0,0.26458333,0,26.767772)" />
    <path
       id="path9"
       style="fill:#1a1a1a;stroke-width:1.65596;stroke-linecap:round;stroke-linejoin:round"
       d="m 124.3133,92.242876 c -0.0483,0.2493 1.09414,13.331844 3.09748,28.202414 -2.06713,-4.43066 -4.1507,-8.85371 -6.27145,-13.25863 -0.16909,0.1691 7.89162,33.54296 11.19208,46.3393 l 2.71198,10.51564 h 6.36809 c 1.10566,0 1.81673,-0.006 2.58175,-0.0109 0.76512,0.005 1.47639,0.0109 2.58228,0.0109 h 6.3686 l 2.71198,-10.51564 c 3.30047,-12.79634 11.36065,-46.1702 11.19156,-46.3393 -2.12077,4.40499 -4.20428,8.8279 -6.27145,13.25863 2.00335,-14.8706 3.14575,-27.953104 3.09749,-28.202414 -0.051,-0.26387 -2.67509,26.501864 -19.67994,63.957854 C 126.9889,118.74474 124.36432,91.979006 124.3133,92.242876 Z" />
  </g>
</svg>
